<svg width="17" height="16" viewBox="0 0 17 16" fill="none" xmlns="http://www.w3.org/2000/svg">
<path fill-rule="evenodd" clip-rule="evenodd" d="M13.6838 6.56235C13.2154 9.68289 10.306 11.8329 7.18554 11.3645C4.06504 10.8961 1.91505 7.98676 2.3834 4.86621C2.85179 1.74571 5.76113 -0.404316 8.88168 0.0640715C12.0022 0.532459 14.1522 3.4418 13.6838 6.56235Z" fill="#EB3223"/>
<path fill-rule="evenodd" clip-rule="evenodd" d="M1.17655 15.5429C0.798447 15.5429 0.490835 15.2353 0.490835 14.8572C0.490835 14.4791 0.798447 14.1715 1.17655 14.1715C1.55465 14.1715 1.86227 14.4791 1.86227 14.8572C1.86227 15.2353 1.55465 15.5429 1.17655 15.5429ZM1.17655 13.7144C0.546378 13.7144 0.0336914 14.227 0.0336914 14.8572C0.0336914 15.4874 0.546378 16.0001 1.17655 16.0001C1.43365 16.0001 1.67109 15.9147 1.86227 15.7709V15.7715C1.86227 15.8977 1.96457 16.0001 2.09084 16.0001C2.2171 16.0001 2.31941 15.8977 2.31941 15.7715V14.8526C2.31941 14.8521 2.31927 14.8516 2.31923 14.8511C2.31593 14.2237 1.80467 13.7144 1.17655 13.7144Z" fill="#EB3223"/>
<path fill-rule="evenodd" clip-rule="evenodd" d="M9.8621 15.5429C9.48399 15.5429 9.17638 15.2353 9.17638 14.8572C9.17638 14.4791 9.48399 14.1715 9.8621 14.1715C10.2402 14.1715 10.5478 14.4791 10.5478 14.8572C10.5478 15.2353 10.2402 15.5429 9.8621 15.5429ZM9.8621 13.7144C9.23192 13.7144 8.71924 14.227 8.71924 14.8572C8.71924 15.4874 9.23192 16.0001 9.8621 16.0001C10.1192 16.0001 10.3566 15.9147 10.5478 15.7709V15.7715C10.5478 15.8977 10.6501 16.0001 10.7764 16.0001C10.9026 16.0001 11.005 15.8977 11.005 15.7715V14.8526C11.005 14.8521 11.0048 14.8516 11.0048 14.8511C11.0015 14.2237 10.4902 13.7144 9.8621 13.7144Z" fill="#EB3223"/>
<path fill-rule="evenodd" clip-rule="evenodd" d="M8.03375 12.8H8.03316C7.90698 12.8004 7.80486 12.903 7.80518 13.0292L7.81194 15.772C7.81226 15.8981 7.91457 16 8.04052 16H8.04111C8.16733 15.9997 8.26941 15.8971 8.26909 15.7709L8.26232 13.0281C8.262 12.902 8.15974 12.8 8.03375 12.8Z" fill="#EB3223"/>
<path fill-rule="evenodd" clip-rule="evenodd" d="M4.08082 14.9241C4.07525 14.9185 4.06885 14.9143 4.06286 14.9094L4.77696 14.0934C4.86007 13.9984 4.85047 13.854 4.75548 13.7709C4.66044 13.6877 4.51607 13.6973 4.43292 13.7924L3.23351 15.1631V13.0286C3.23351 12.9024 3.1312 12.8 3.00494 12.8C2.87868 12.8 2.77637 12.9024 2.77637 13.0286V15.7714C2.77637 15.8667 2.83538 15.9519 2.92453 15.9854C2.95072 15.9953 2.97797 16 3.00489 16C3.06953 16 3.13271 15.9725 3.17696 15.9219L3.76274 15.2525L4.44334 15.933C4.48791 15.9777 4.54647 16 4.60494 16C4.66341 16 4.72192 15.9777 4.76654 15.933C4.85582 15.8438 4.85582 15.6991 4.76654 15.6098L4.08082 14.9241Z" fill="#EB3223"/>
<path fill-rule="evenodd" clip-rule="evenodd" d="M7.11959 13.7144C6.99332 13.7144 6.89102 13.8167 6.89102 13.9429V14.9715C6.89102 15.2866 6.6347 15.5429 6.31959 15.5429C6.00448 15.5429 5.74816 15.2866 5.74816 14.9715V13.9429C5.74816 13.8167 5.64585 13.7144 5.51959 13.7144C5.39332 13.7144 5.29102 13.8167 5.29102 13.9429V14.9715C5.29102 15.5387 5.75246 16.0001 6.31959 16.0001C6.88672 16.0001 7.34816 15.5387 7.34816 14.9715V13.9429C7.34816 13.8167 7.24585 13.7144 7.11959 13.7144Z" fill="#EB3223"/>
<path fill-rule="evenodd" clip-rule="evenodd" d="M12.7669 14.9241C12.7613 14.9185 12.7549 14.9143 12.7489 14.9094L13.463 14.0934C13.5461 13.9984 13.5365 13.854 13.4415 13.7709C13.3465 13.6877 13.2021 13.6973 13.1189 13.7924L11.9195 15.1631V13.0286C11.9195 12.9024 11.8172 12.8 11.691 12.8C11.5647 12.8 11.4624 12.9024 11.4624 13.0286V15.7714C11.4624 15.8667 11.5214 15.9519 11.6106 15.9854C11.6368 15.9953 11.664 16 11.6909 16C11.7556 16 11.8187 15.9725 11.863 15.9219L12.4488 15.2525L13.1294 15.933C13.1739 15.9777 13.2325 16 13.291 16C13.3494 16 13.4079 15.9777 13.4526 15.933C13.5418 15.8438 13.5418 15.6991 13.4526 15.6098L12.7669 14.9241Z" fill="#EB3223"/>
<path fill-rule="evenodd" clip-rule="evenodd" d="M15.8051 13.7144C15.6789 13.7144 15.5766 13.8167 15.5766 13.9429V14.9715C15.5766 15.2866 15.3202 15.5429 15.0051 15.5429C14.69 15.5429 14.4337 15.2866 14.4337 14.9715V13.9429C14.4337 13.8167 14.3314 13.7144 14.2051 13.7144C14.0789 13.7144 13.9766 13.8167 13.9766 13.9429V14.9715C13.9766 15.5387 14.438 16.0001 15.0051 16.0001C15.5723 16.0001 16.0337 15.5387 16.0337 14.9715V13.9429C16.0337 13.8167 15.9314 13.7144 15.8051 13.7144Z" fill="#EB3223"/>
<path fill-rule="evenodd" clip-rule="evenodd" d="M9.25417 4.93972C9.17545 4.38872 8.8586 3.93346 8.42162 3.66045C8.21778 3.53304 7.99168 3.44285 7.74441 3.40559C7.5226 3.37218 7.288 3.37487 7.04795 3.42923C6.84461 3.47526 6.64164 3.56203 6.46116 3.68038C6.19227 3.8567 5.96754 4.10799 5.81947 4.41501C5.66363 4.73826 5.60809 5.12943 5.65966 5.5458C5.70048 5.87558 5.83726 6.17085 6.02386 6.40948C6.42647 6.92436 7.10317 7.19494 7.74075 7.08897C8.25673 7.00326 8.70601 6.70676 8.97408 6.30401C9.23506 5.91188 9.3226 5.41876 9.25417 4.93972ZM10.6475 7.59846C10.5371 7.70909 10.3723 7.77162 10.2439 7.77162C10.0861 7.77162 9.95268 7.71814 9.85229 7.63773C9.78811 7.5863 9.73705 7.52545 9.70043 7.45258C9.65997 7.36545 9.57924 7.38004 9.54116 7.41592C9.49855 7.45633 9.45531 7.49094 9.40991 7.53002C9.26564 7.65414 9.10697 7.76938 8.93298 7.86369C8.62861 8.02854 8.29001 8.14004 7.96827 8.19206C7.7296 8.23064 7.48946 8.23745 7.25453 8.21802C6.80548 8.1809 6.37298 8.04367 5.98894 7.8188C5.60818 7.5959 5.27529 7.27969 5.02491 6.91398C4.80069 6.58639 4.64325 6.20015 4.56736 5.80244C4.44732 5.17304 4.53637 4.56052 4.77467 4.02863C5.03913 3.43823 5.49225 2.9431 6.06948 2.62955C6.36393 2.46964 6.69028 2.35892 7.0411 2.30292C7.90112 2.16555 8.73261 2.43151 9.35058 2.91366C9.60612 3.11302 9.82738 3.35595 9.99515 3.62223C10.065 3.72043 10.2259 3.94269 10.4061 4.54918C10.5126 4.90767 10.6297 5.41556 10.7211 6.06155C10.7556 6.30452 10.7765 6.46904 10.8029 6.7959C10.8075 6.85341 10.8246 7.14269 10.8246 7.16989C10.8246 7.34781 10.748 7.49784 10.6475 7.59846Z" fill="white"/>
<path fill-rule="evenodd" clip-rule="evenodd" d="M11.4559 6.84233C11.4513 6.45152 11.4122 6.09038 11.3691 5.7386C11.3163 5.30692 11.2521 4.89307 11.1723 4.50221C10.9363 3.34564 10.6005 2.40274 10.3293 1.77069C10.2673 1.62624 10.2094 1.48653 10.1548 1.37398C10.113 1.28969 10.0844 1.22203 10.0782 1.16717C10.0698 1.09215 10.0969 1.04022 10.1306 0.994326C10.1717 0.938052 10.2455 0.905412 10.3171 0.905274C10.4102 0.905092 10.5522 0.952406 10.5522 0.952406C10.6722 0.990303 10.7638 1.02907 10.8629 1.09028C11.0212 1.18793 11.1771 1.31414 11.2824 1.46751C11.3491 1.56466 11.4105 1.6602 11.4566 1.76384C11.504 1.87058 11.5498 1.97627 11.5951 2.08429C11.7026 2.34025 11.8002 2.60306 11.8964 2.8645C11.9578 3.03136 12.0128 3.19926 12.0682 3.36937C12.0973 3.45901 12.1299 3.55556 12.1553 3.64603C12.1902 3.77037 12.2319 3.90386 12.2682 4.03725C12.2863 4.10345 12.3077 4.18386 12.3229 4.25709C12.3535 4.40443 12.374 4.55099 12.3983 4.69353C12.4531 5.01394 12.4904 5.33961 12.519 5.62148C12.5685 6.1099 12.5878 6.5072 12.5962 6.80882C12.5972 6.84201 12.5995 6.93723 12.5995 6.97422C12.5995 7.12516 12.5353 7.27973 12.4264 7.38272C12.3255 7.47813 12.1881 7.54286 12.0347 7.54286C11.7185 7.54286 11.4622 7.28654 11.4622 6.97033L11.4559 6.84233Z" fill="white"/>
</svg>
