<svg width="16" height="12" viewBox="0 0 16 12" fill="none" xmlns="http://www.w3.org/2000/svg">
<path fill-rule="evenodd" clip-rule="evenodd" d="M0.5 0V12H15.5V0H0.5Z" fill="#137CD3"/>
<path fill-rule="evenodd" clip-rule="evenodd" d="M0.5 6.03874H1.20164L1.35977 5.66167H1.71373L1.87186 6.03874H3.2521V5.75064L3.37515 6.04029H4.09145L4.21502 5.7465V6.03874H7.64519L7.64415 5.42012H7.71012C7.7562 5.42219 7.77034 5.42581 7.77034 5.50185V6.03874H9.54433V5.89495C9.68727 5.97047 9.91033 6.03874 10.2025 6.03874H10.9492L11.1094 5.66167H11.4628L11.6194 6.03874H13.0572V5.68081L13.2751 6.03874H14.4286V3.67236H13.2876V3.95167L13.1274 3.67236H11.9571V3.95167L11.8105 3.67236H10.2297C9.96479 3.67236 9.73231 3.70857 9.54433 3.81047V3.67236H8.45312V3.81047C8.33374 3.70547 8.17037 3.67236 7.98973 3.67236H4.00348L3.73644 4.28323L3.46102 3.67236H2.20592V3.95167L2.06769 3.67236H0.996907L0.5 4.79788V6.03874ZM14.0622 5.70511H13.4804L12.7023 4.43218V5.70511H11.8661L11.7059 5.32701H10.853L10.6985 5.70511H10.2178C10.0183 5.70511 9.76542 5.66167 9.62247 5.51787C9.47795 5.37408 9.40308 5.17856 9.40308 4.86977C9.40308 4.61839 9.44811 4.38873 9.62456 4.20667C9.75704 4.07115 9.96491 4.00856 10.2477 4.00856H10.6456V4.37218H10.2566C10.1068 4.37218 10.022 4.39391 9.9403 4.47304C9.87066 4.54391 9.82249 4.67942 9.82249 4.85735C9.82249 5.03891 9.85862 5.16977 9.93559 5.25563C9.99842 5.32287 10.1131 5.34304 10.221 5.34304H10.4058L10.9844 4.00856H11.5996L12.2945 5.61408V4.00856H12.9202L13.6417 5.19046V4.00856H14.0622V5.70511ZM8.78242 5.70511H9.20184V4.00856H8.78242V5.70511ZM8.5448 4.4658C8.5448 4.7358 8.36206 4.87598 8.25576 4.91787C8.3453 4.95149 8.42227 5.01149 8.4584 5.06063C8.51652 5.14494 8.52647 5.22046 8.52647 5.37201V5.70511H8.1123L8.11072 5.49149C8.11072 5.3896 8.12067 5.2427 8.0458 5.16098C7.98611 5.10149 7.89447 5.08856 7.74682 5.08856H7.30593V5.70511H6.89542V4.00856H7.84002C8.04946 4.00856 8.20445 4.01425 8.33692 4.08977C8.46678 4.1658 8.5448 4.27649 8.5448 4.4658ZM6.61116 5.70511H5.2393V4.00856H6.61116V4.36236H5.64981V4.66804H6.5876V5.01563H5.64981V5.35494H6.61116V5.70511ZM4.93331 5.70511H4.51232L4.51075 4.37632L3.91488 5.70511H3.55464L2.95772 4.37529V5.70511H2.12309L1.96496 5.32701H1.1099L0.950723 5.70511H0.504607L1.23976 4.00856H1.84976L2.54826 5.61563V4.00856H3.21848L3.75571 5.15994L4.24947 4.00856H4.93331V5.70511ZM11.5659 4.9732L11.2821 4.29717L10.9994 4.9732H11.5659ZM8.00798 4.70425C7.95091 4.73787 7.88493 4.73891 7.80429 4.73891H7.30582V4.36236H7.81163C7.88336 4.36236 7.95771 4.36546 8.00588 4.39236C8.05982 4.41718 8.09228 4.46994 8.09228 4.54236C8.09228 4.61684 8.06086 4.67632 8.00798 4.70425ZM1.8168 4.9732L1.53615 4.29717L1.25602 4.9732H1.8168Z" fill="white"/>
<path fill-rule="evenodd" clip-rule="evenodd" d="M8.80412 7.9678C8.80412 8.43953 8.44554 8.53677 8.08432 8.53677H7.56807V9.10573H6.76443L6.25503 8.54401L5.72612 9.10573H4.08825V7.40867H5.75144L6.2603 7.96522L6.78605 7.40867H8.10752C8.43552 7.40867 8.80412 7.49815 8.80412 7.9678ZM5.5167 8.75245H4.50002V8.41418H5.40807V8.06814H4.50002V7.75987H5.53674L5.98919 8.25435L5.5167 8.75245ZM7.15624 8.95158L6.52134 8.26002L7.15624 7.59071V8.95158ZM8.10275 8.19226H7.56804V7.75985H8.1075C8.25673 7.75985 8.36009 7.81933 8.36009 7.96778C8.36009 8.11467 8.26148 8.19226 8.10275 8.19226ZM10.8924 7.40867H12.2724V7.75987H11.3042V8.06815H12.2487V8.41418H11.3042V8.75246L12.2724 8.75401V9.10573H10.8924V7.40867ZM10.3701 8.31746C10.4619 8.35056 10.5373 8.41005 10.5726 8.4597C10.6306 8.54246 10.639 8.62005 10.6406 8.76953V9.10573H10.2256V8.89367C10.2256 8.79177 10.2356 8.64022 10.1587 8.56108C10.0985 8.50056 10.0063 8.48608 9.85544 8.48608H9.41354V9.10573H8.99801V7.40867H9.953C10.1618 7.40867 10.3147 7.41798 10.4503 7.48884C10.5805 7.56642 10.6628 7.67246 10.6628 7.86591C10.6628 8.13642 10.4787 8.27505 10.3701 8.31746ZM10.1203 8.10639C10.0649 8.13794 9.99692 8.14104 9.91572 8.14104H9.4137V7.75984H9.9231C9.99692 7.75984 10.0702 7.76139 10.1203 7.79035C10.1741 7.81777 10.2057 7.87053 10.2057 7.94294C10.2057 8.01587 10.1741 8.07432 10.1203 8.10639ZM13.851 8.21091C13.9323 8.29263 13.975 8.39556 13.975 8.57039C13.975 8.93556 13.7424 9.10573 13.3253 9.10573H12.5201V8.74211H13.3221C13.4007 8.74211 13.4561 8.73229 13.4914 8.70022C13.5194 8.67384 13.5399 8.63556 13.5399 8.58901C13.5399 8.53987 13.5178 8.50056 13.4898 8.47677C13.4577 8.45142 13.4144 8.43953 13.3422 8.43953C12.9556 8.4266 12.471 8.45142 12.471 7.91401C12.471 7.6678 12.6292 7.40867 13.0622 7.40867H13.8911V7.7697H13.1328C13.0574 7.7697 13.0089 7.7728 12.9672 7.80073C12.9224 7.82763 12.905 7.86901 12.905 7.9228C12.905 7.98694 12.944 8.03039 12.9957 8.04901C13.039 8.06453 13.0859 8.06815 13.1566 8.06815L13.3791 8.07436C13.6037 8.07953 13.7577 8.1178 13.851 8.21091ZM15.5006 8.88848C15.4004 9.03331 15.2047 9.10572 14.94 9.10572H14.1411V8.7421H14.9363C15.0154 8.7421 15.0708 8.73227 15.1035 8.7002C15.1325 8.67383 15.1525 8.63555 15.1525 8.589C15.1525 8.53986 15.1325 8.50055 15.1019 8.47676C15.0724 8.45141 15.0286 8.43951 14.9564 8.43951C14.5682 8.42658 14.0842 8.45141 14.0842 7.914C14.0842 7.66779 14.2429 7.40865 14.6774 7.40865H15.5006V7.07141H14.7354C14.505 7.07141 14.3368 7.1252 14.2181 7.20951V7.07141H13.0859C12.9051 7.07141 12.6926 7.11538 12.5924 7.20951V7.07141H10.5711V7.20951C10.4098 7.09572 10.1382 7.07141 10.0132 7.07141H8.68014V7.20951C8.55252 7.089 8.26935 7.07141 8.09691 7.07141H6.60511L6.26393 7.43348L5.94385 7.07141H3.71484V9.43934H5.90166L6.25339 9.07107L6.58507 9.43934L7.93344 9.44089V8.88383H8.0658C8.24457 8.88589 8.4555 8.87917 8.64164 8.80003V9.43934H9.75377V8.82176H9.80703C9.87558 8.82176 9.88244 8.82486 9.88244 8.89158V9.43934H13.26C13.4746 9.43934 13.6987 9.38503 13.8231 9.28779V9.43934H14.8947C15.1177 9.43934 15.3355 9.40831 15.5006 9.3302V8.88848ZM15.5005 7.76967H14.7475C14.6721 7.76967 14.622 7.77277 14.5798 7.8007C14.536 7.8276 14.5197 7.86898 14.5197 7.92277C14.5197 7.98639 14.5561 8.03036 14.6098 8.04898C14.6536 8.06398 14.7005 8.06812 14.7696 8.06812L14.9932 8.07432C15.2194 8.0795 15.3702 8.11777 15.4625 8.21088C15.4789 8.22381 15.4894 8.23777 15.5005 8.25277V7.76967Z" fill="white"/>
</svg>
