<svg width="18" height="7" viewBox="0 0 18 7" fill="none" xmlns="http://www.w3.org/2000/svg">
<path fill-rule="evenodd" clip-rule="evenodd" d="M5.91016 1.17285H10.5255V3.87564H8.58928L10.5255 5.60542H8.88069L6.98182 3.87564V5.60542H5.91016V2.85773H9.29412V2.20003H5.91016V1.17285Z" fill="#9E9E9E"/>
<path fill-rule="evenodd" clip-rule="evenodd" d="M1.86608 4.53334V1.17285H0.973926C0.812574 1.17285 0.689176 1.29005 0.689176 1.43435C0.689176 2.22709 0.679688 4.56036 0.679688 5.33516C0.679688 5.47928 0.803086 5.60542 0.954949 5.60542H3.60276V4.53334H1.86608Z" fill="#9E9E9E"/>
<path fill-rule="evenodd" clip-rule="evenodd" d="M4.21777 6.67552H5.2947V4.38281H4.21777V6.67552Z" fill="#9E9E9E"/>
<path fill-rule="evenodd" clip-rule="evenodd" d="M2.52637 1.17285V2.27536H4.28194V3.9241H5.44944V1.44182C5.44944 1.29832 5.32591 1.18202 5.17429 1.17285H2.52637Z" fill="#9E9E9E"/>
<path fill-rule="evenodd" clip-rule="evenodd" d="M2.52637 2.85425V4.35425H2.90748H4.02637V2.85425H2.52637ZM3.58371 3.89856H3.12853H2.96892V3.29809H3.58371V3.89856Z" fill="#9E9E9E"/>
<path fill-rule="evenodd" clip-rule="evenodd" d="M17.6348 4.53564V6.15595C17.6348 6.29691 17.5018 6.41133 17.3501 6.41133H15.6025V6.6755H17.6348H17.6445C17.7869 6.6755 17.9102 6.56104 17.9102 6.42017V6.41133V4.53564H17.6348Z" fill="#9E9E9E"/>
<path fill-rule="evenodd" clip-rule="evenodd" d="M0.349372 2.23388V0.61384C0.349372 0.472844 0.463302 0.367311 0.615255 0.367311H2.36265C2.37215 0.367311 2.37215 0.358253 2.37215 0.358253V0.111724C2.37215 0.111724 2.37215 0.103027 2.36265 0.103027H0.349372C0.187925 0.103027 0.0644531 0.217573 0.0644531 0.367311V2.23388C0.0644531 2.24289 0.0739472 2.24289 0.0739472 2.24289H0.339878C0.339878 2.24289 0.349372 2.24289 0.349372 2.23388Z" fill="#9E9E9E"/>
<path fill-rule="evenodd" clip-rule="evenodd" d="M16.9879 2.27648V1.17285H12.5264V2.82846V3.94102H15.4979V4.49276H12.5264V5.60542H16.9879V2.83739H14.0167V2.27648H16.9879Z" fill="#9E9E9E"/>
<path fill-rule="evenodd" clip-rule="evenodd" d="M10.9873 5.60542H12.0642V1.17285H10.9873V5.60542Z" fill="#9E9E9E"/>
</svg>
